<svg width="50" height="50" viewBox="0 0 50 50" fill="none" xmlns="http://www.w3.org/2000/svg">
<rect width="50" height="50" rx="16" fill="#FFDA7B"/>
<rect width="50" height="50" rx="16"/>
<path d="M23.06 35V31.85L22.76 31.16V25.52C22.76 24.52 22.45 23.74 21.83 23.18C21.23 22.62 20.3 22.34 19.04 22.34C18.18 22.34 17.33 22.48 16.49 22.76C15.67 23.02 14.97 23.38 14.39 23.84L12.71 20.57C13.59 19.95 14.65 19.47 15.89 19.13C17.13 18.79 18.39 18.62 19.67 18.62C22.13 18.62 24.04 19.2 25.4 20.36C26.76 21.52 27.44 23.33 27.44 25.79V35H23.06ZM18.14 35.24C16.88 35.24 15.8 35.03 14.9 34.61C14 34.17 13.31 33.58 12.83 32.84C12.35 32.1 12.11 31.27 12.11 30.35C12.11 29.39 12.34 28.55 12.8 27.83C13.28 27.11 14.03 26.55 15.05 26.15C16.07 25.73 17.4 25.52 19.04 25.52H23.33V28.25H19.55C18.45 28.25 17.69 28.43 17.27 28.79C16.87 29.15 16.67 29.6 16.67 30.14C16.67 30.74 16.9 31.22 17.36 31.58C17.84 31.92 18.49 32.09 19.31 32.09C20.09 32.09 20.79 31.91 21.41 31.55C22.03 31.17 22.48 30.62 22.76 29.9L23.48 32.06C23.14 33.1 22.52 33.89 21.62 34.43C20.72 34.97 19.56 35.24 18.14 35.24ZM31.6756 35V18.86H36.3556V35H31.6756ZM34.0156 16.61C33.1556 16.61 32.4556 16.36 31.9156 15.86C31.3756 15.36 31.1056 14.74 31.1056 14C31.1056 13.26 31.3756 12.64 31.9156 12.14C32.4556 11.64 33.1556 11.39 34.0156 11.39C34.8756 11.39 35.5756 11.63 36.1156 12.11C36.6556 12.57 36.9256 13.17 36.9256 13.91C36.9256 14.69 36.6556 15.34 36.1156 15.86C35.5956 16.36 34.8956 16.61 34.0156 16.61Z" fill="black"/>
</svg>
