<svg width="50" height="50" viewBox="0 0 50 50" fill="none" xmlns="http://www.w3.org/2000/svg">
<rect width="50" height="50" rx="16" fill="#FF7B7B"/>
<rect width="50" height="50" rx="16" />
<path d="M20.26 18H23.5V32H20.26V18ZM13.9 32H10.66V18H13.9V32ZM20.5 26.26H13.66V23.52H20.5V26.26ZM26.8123 32V18H33.1723C34.6923 18 36.0323 18.2933 37.1923 18.88C38.3523 19.4533 39.259 20.26 39.9123 21.3C40.5657 22.34 40.8923 23.5733 40.8923 25C40.8923 26.4133 40.5657 27.6467 39.9123 28.7C39.259 29.74 38.3523 30.5533 37.1923 31.14C36.0323 31.7133 34.6923 32 33.1723 32H26.8123ZM30.0523 29.34H33.0123C33.9457 29.34 34.7523 29.1667 35.4323 28.82C36.1257 28.46 36.659 27.9533 37.0323 27.3C37.419 26.6467 37.6123 25.88 37.6123 25C37.6123 24.1067 37.419 23.34 37.0323 22.7C36.659 22.0467 36.1257 21.5467 35.4323 21.2C34.7523 20.84 33.9457 20.66 33.0123 20.66H30.0523V29.34Z" fill="black"/>
</svg>
